inDegrees=no
num_controls=7
num_derivatives=13
num_iterations=123
num_multipliers=7
num_parameters=0
num_slacks=7
num_states=26
objective=0.548106
objective_accelerations=0.039755
objective_balance=0.003378
objective_effort=0.037882
objective_height=0.457525
objective_ligament=0.009565
solver_duration=1283.905603
status=Solve_Succeeded
success=true
DataType=double
version=3
OpenSimVersion=4.5
endheader
time	/jointset/ground_pelvis/pelvis_tilt/value	/jointset/ground_pelvis/pelvis_tx/value	/jointset/ground_pelvis/pelvis_ty/value	/jointset/hip_r/hip_flexion_r/value	/jointset/hip_r/hip_adduction_r/value	/jointset/hip_r/hip_rotation_r/value	/jointset/back/lumbar_extension/value	/jointset/patellofemoral_r/patellar_flexion_r/value	/jointset/knee_r/knee_flexion_r/value	/jointset/knee_r/knee_adduction_r/value	/jointset/knee_r/knee_rotation_r/value	/jointset/ankle_r/ankle_angle_r/value	/jointset/subtalar_r/subtalar_angle_r/value	/jointset/ground_pelvis/pelvis_tilt/speed	/jointset/ground_pelvis/pelvis_tx/speed	/jointset/ground_pelvis/pelvis_ty/speed	/jointset/hip_r/hip_flexion_r/speed	/jointset/hip_r/hip_adduction_r/speed	/jointset/hip_r/hip_rotation_r/speed	/jointset/back/lumbar_extension/speed	/jointset/patellofemoral_r/patellar_flexion_r/speed	/jointset/knee_r/knee_flexion_r/speed	/jointset/knee_r/knee_adduction_r/speed	/jointset/knee_r/knee_rotation_r/speed	/jointset/ankle_r/ankle_angle_r/speed	/jointset/subtalar_r/subtalar_angle_r/speed	/forceset/tau_hip_flexion_r	/forceset/tau_hip_adduction_r	/forceset/tau_hip_rotation_r	/forceset/tau_knee_flexion_r	/forceset/tau_ankle_angle_r	/forceset/tau_subtalar_angle_r	/forceset/tau_lumbar_extension	lambda_cid13_p0	lambda_cid14_p0	lambda_cid14_p1	lambda_cid14_p2	lambda_cid14_p3	lambda_cid14_p4	lambda_cid14_p5	/jointset/ground_pelvis/pelvis_tilt/accel	/jointset/ground_pelvis/pelvis_tx/accel	/jointset/ground_pelvis/pelvis_ty/accel	/jointset/hip_r/hip_flexion_r/accel	/jointset/hip_r/hip_adduction_r/accel	/jointset/hip_r/hip_rotation_r/accel	/jointset/back/lumbar_extension/accel	/jointset/patellofemoral_r/patellar_flexion_r/accel	/jointset/knee_r/knee_flexion_r/accel	/jointset/knee_r/knee_adduction_r/accel	/jointset/knee_r/knee_rotation_r/accel	/jointset/ankle_r/ankle_angle_r/accel	/jointset/subtalar_r/subtalar_angle_r/accel	gamma_cid13_p0	gamma_cid14_p0	gamma_cid14_p1	gamma_cid14_p2	gamma_cid14_p3	gamma_cid14_p4	gamma_cid14_p5
1.5	-0.1775423787899004	0.02788973331491224	0.8599377117467694	0.7835688695475072	-0.225396195949653	-0.1448598012990626	-0.2945894717679804	0.6418672615323745	0.6418672615323434	0.03820736979132488	0.1745243425134195	0.2042427336282263	0.04604267141293249	0.4194958129186941	0.1897175533134216	0.3615073841857198	-1.749675063707657	0.014009041063519	-0.2847175593054617	0.6996578755224515	-1.727886759798013	-1.727886759797997	0.2773199499494111	-2.051351194300296e-05	-0.4815959021081673	-0.1115112894457958	-0.1105846459575996	-0.01949932110540963	0.006995093783063154	-0.3056298331652549	0.08998136895015776	-0.0115091011224472	0.1534291847513144	-34.5161638452137	-12.84727474123831	-2.991055638978081	-3.925478527371377	-0.4361561876341519	-660.2795262599952	57.72053398030032	0.187974885148243	0.4216640089326213	-0.4465804089991707	-0.9589185804094518	-0.00932427203700459	-0.5101370626928288	1.442142032554961	-1.005106867874862	-1.005106867874885	0.42985820505202	0.0037179764790352	-0.3547249900819101	-0.04672163318098518	1.21252884867706e-07	1.717838958473717e-07	-4.781418456848313e-07	1.231186662945231e-06	-4.451903242517426e-08	2.215851328860709e-07	-6.319533343579764e-07
1.51	-0.1733385219774246	0.02980774676696088	0.8635296817360041	0.7660262780978072	-0.2252574257508444	-0.1477314114803519	-0.2875218911764376	0.624540495253749	0.6245404952537329	0.04100409820254862	0.1745244317477342	0.1994094591000515	0.04492425865145599	0.4212154458876237	0.1938571828769124	0.3568106953772518	-1.7585989914879	0.01374356115573491	-0.2895841221941218	0.7137528709855986	-1.737216259140262	-1.737216259140254	0.2820113305090704	3.041946862987372e-05	-0.4849868220396917	-0.1121521835138982	-0.1037380730299993	-0.02118074025060093	0.006349272310330101	-0.3027730978892624	0.0928787111830652	-0.01217765747706126	0.1473504952324877	-35.39655887053051	-11.75773333921036	-2.992413639509818	-4.037458410473844	-0.7721746334238494	-656.694387159442	57.81778403778187	0.1549595190494222	0.4059118986493466	-0.4925535502584102	-0.8224722503289802	-0.03523315563223763	-0.4716504731216072	1.37737253311917	-0.8593623699181561	-0.8593623699191808	0.4866043731379357	0.004826077229386158	-0.3204373623650411	-0.06985182743461593	1.284137983941389e-07	1.757635503469369e-07	-5.434263911576523e-07	1.262865899398869e-06	-3.955155357377812e-08	2.314590042214821e-07	-6.879818274022422e-07
1.52	-0.1691192684320031	0.03176631640836283	0.8670724167504567	0.748401778895605	-0.2251213250122103	-0.1506510342047614	-0.2803165217842785	0.6071279358011966	0.6071279358011966	0.04384730569771173	0.1745248393355324	0.194544442999026	0.04380002124253651	0.4225751595079187	0.1978287911840836	0.3516603892292675	-1.766056614208033	0.01347514902862522	-0.2943200679295423	0.7272156356457297	-1.745045394583237	-1.745045394583235	0.2866157667373313	4.315718452138198e-05	-0.4879442166783096	-0.1126762189343907	-0.09689150010239861	-0.0228621593957903	0.005703450837606459	-0.2999163626132703	0.09577605341597299	-0.01284621383167293	0.1412718057136609	-36.24345380795282	-10.67636533044339	-2.992015149018321	-4.153360202929006	-1.111099445149089	-653.2448900050225	57.99240074653712	0.1159910154213269	0.388059757668696	-0.5373038769024383	-0.6656575683872676	-0.009910715902126605	-0.4840136320449276	1.315695871951764	-0.7050340880197142	-0.7050340880197212	0.4124693387723318	-0.003921076457238076	-0.2680199315005928	-0.02334990365901725	1.365499846976911e-07	1.773808487676589e-07	-6.333895563665241e-07	1.279615481181768e-06	-3.05963500049031e-08	2.389786527957368e-07	-7.501770670860082e-07
1.53	-0.1648882664541053	0.03376373138931834	0.8705614472675801	0.7307100482016673	-0.2249879691878479	-0.153617638764735	-0.2729797303443377	0.5896445723229572	0.589644572322943	0.04673605418554094	0.1745254326497951	0.1896520160852399	0.0426710775080459	0.423561142305434	0.2016227782445983	0.3460767757046732	-1.772041411481811	0.01319619026766645	-0.2989806188321024	0.7400305871697413	-1.751376419165009	-1.751376419165008	0.2911144319714364	6.835579645050705e-05	-0.4904672382350411	-0.1130917370008794	-0.08996341407076651	-0.02470427288924201	0.005077508219938819	-0.2972587313490077	0.09891779280262243	-0.01367508254526922	0.1351455854894587	-37.05239265404981	-9.536465299173679	-3.057259570120666	-4.251636544124636	-1.463145766973107	-649.9845730569373	58.10357431667271	0.08030529851319307	0.3703520975500214	-0.579181527149644	-0.5276516787886495	-0.03674479523856776	-0.4538123505489534	1.247585016720779	-0.5595344849158989	-0.5595344849160463	0.4655966031122851	0.004905240059049423	-0.2333379967746185	-0.04751124023067317	1.457223983269324e-07	1.764881438546101e-07	-7.495737550449498e-07	1.280502304877006e-06	-1.740418892370682e-08	2.439969396862627e-07	-8.189244750742431e-07
